PathFileType	4	(X/Y/Z)	 s05c0403.trc
DataRate	CameraRate	NumFrames	NumMarkers	Units	OrigDataRate	OrigDataStartFrame	OrigNumFrames
200	200	4	49	mm	200	1251	2000
Frame#	Time	racr			lacr			c7			jug			rlel			rdr			llel			ldr			s2			lic			ric			lasi			rasi			rpsi			lpsi			rgt			lgt			rth1			rth2			rth3			rth4			rlfc			rsh1			rsh2			rsh3			rsh4			rlmal			rmmal			rcal			rtoe			rmt5			lth1			lth2			lth4			lth3			llfc			lmfc			lsh1			lsh2			lsh3			lsh4			llmal			lmmal			lcal			ltoe			lmt5			SBIKE			LBIKE			RBIKE			
		X1	Y1	Z1	X2	Y2	Z2	X3	Y3	Z3	X4	Y4	Z4	X5	Y5	Z5	X6	Y6	Z6	X7	Y7	Z7	X8	Y8	Z8	X9	Y9	Z9	X10	Y10	Z10	X11	Y11	Z11	X12	Y12	Z12	X13	Y13	Z13	X14	Y14	Z14	X15	Y15	Z15	X16	Y16	Z16	X17	Y17	Z17	X18	Y18	Z18	X19	Y19	Z19	X20	Y20	Z20	X21	Y21	Z21	X22	Y22	Z22	X23	Y23	Z23	X24	Y24	Z24	X25	Y25	Z25	X26	Y26	Z26	X27	Y27	Z27	X28	Y28	Z28	X29	Y29	Z29	X30	Y30	Z30	X31	Y31	Z31	X32	Y32	Z32	X33	Y33	Z33	X34	Y34	Z34	X35	Y35	Z35	X36	Y36	Z36	X37	Y37	Z37	X38	Y38	Z38	X39	Y39	Z39	X40	Y40	Z40	X41	Y41	Z41	X42	Y42	Z42	X43	Y43	Z43	X44	Y44	Z44	X45	Y45	Z45	X46	Y46	Z46	X47	Y47	Z47	X48	Y48	Z48	X49	Y49	Z49	
1251	6.2550	824.006812	1271.162823	-107.518591	807.539021	1275.179347	-421.427457	810.643904	1361.882617	-270.324859	758.285369	1199.722536	-261.633851	614.533389	1145.496275	65.154668	685.494296	954.230143	-26.295016	572.445342	1164.240986	-598.101620	691.564198	967.682665	-507.925712	217.241381	1243.094016	-222.641986	353.929790	1218.300076	-376.864783	376.008418	1231.943232	-94.362819	386.869578	1156.317613	-340.144958	393.109541	1161.599541	-124.532767	265.935860	1281.490404	-186.263466	263.283585	1280.935767	-273.285273	307.950885	1110.168318	-61.554882	257.408772	1133.685125	-395.227786	390.467913	1020.563638	-55.705512	462.633009	969.277521	-64.837271	497.496159	888.494872	-73.014124	488.006132	991.696705	-78.993020	565.280783	766.696356	-110.114281	462.283723	736.863531	-78.899818	392.846163	682.436448	-92.064871	309.116407	666.100672	-93.229045	407.046249	657.991237	-118.322536	190.004372	606.961149	-96.808808	220.118807	616.251849	-177.374471	132.917097	659.445710	-139.425664	212.627223	375.077003	-158.924850	159.801472	457.134184	-86.807201	295.702505	990.484046	-423.422863	340.789369	918.001345	-421.527918	375.766027	926.557203	-410.887210	341.957367	827.252184	-420.885308	369.834816	688.478087	-397.334881	349.102061	674.068788	-294.074878	302.708772	580.547632	-431.184217	294.911389	493.758418	-424.247038	243.748958	420.966434	-427.048761	323.895391	484.451386	-400.315180	208.713594	306.328423	-426.230560	239.362182	330.223544	-357.763893	142.462187	287.684736	-383.463950	410.452105	165.687866	-395.348596	299.152558	179.525051	-456.938215	-166.769437	902.209194	-269.967263	-43.370950	84.997777	-474.721929	-51.662017	80.289819	-77.232581	
1252	6.2600	823.606820	1272.045971	-105.001319	807.803399	1277.087916	-418.892980	810.250859	1362.882441	-267.592132	758.086310	1200.965019	-259.328161	613.803402	1144.861712	67.553700	685.717431	954.451492	-25.987048	574.020904	1165.266517	-596.945185	692.351175	967.478486	-507.986160	216.757096	1241.747557	-225.717322	355.697744	1215.740347	-378.074397	373.935366	1233.463076	-95.450182	388.169443	1154.256598	-340.132714	391.779172	1162.746695	-124.712753	264.739482	1280.765862	-189.599888	263.201708	1279.142128	-276.499725	307.117860	1111.613475	-62.258754	258.398934	1130.878235	-396.070275	391.621011	1024.103136	-56.135953	465.271512	974.470399	-64.354016	502.233524	894.685453	-72.499181	490.087808	997.621367	-78.225569	572.739433	774.483334	-109.047622	470.134509	744.078145	-77.984026	401.123129	689.535176	-91.187166	317.372547	672.852883	-92.670024	415.275099	665.001207	-117.367601	198.719996	612.774155	-96.768058	228.342740	622.154102	-177.353796	141.419171	664.807302	-139.283096	221.791380	380.598894	-159.514934	168.959307	462.457827	-87.229238	293.769710	987.639429	-424.109164	336.849730	913.984818	-421.994118	372.004675	921.594482	-411.046256	335.576254	823.276207	-421.033268	360.256215	684.541937	-397.473683	338.981033	669.830966	-294.431566	293.405350	576.674920	-431.818375	285.781122	489.970629	-424.864008	234.844214	417.070271	-427.613560	314.884172	480.764861	-401.186304	200.927486	302.200030	-426.614583	231.363177	325.901142	-358.546958	134.796408	284.410284	-383.905886	401.317795	158.996233	-395.502650	290.133741	174.132215	-457.041824	-166.709508	902.173564	-269.971162	-43.381620	85.003189	-474.735739	-51.653192	80.280618	-77.236683	
1253	6.2650	823.388867	1272.585550	-102.567056	808.033943	1278.712188	-416.280685	809.788152	1363.732068	-264.990168	757.770867	1202.007225	-257.068953	612.961519	1144.291490	70.116870	685.855991	954.692641	-25.672518	575.531363	1166.262313	-595.775133	693.028142	967.216198	-508.137918	216.293210	1240.576007	-228.990864	357.337859	1213.288061	-379.182667	371.748724	1234.956652	-96.607108	389.407620	1152.497148	-340.310901	390.457532	1163.774154	-124.795287	263.163604	1280.425616	-192.780804	263.109619	1277.748655	-280.039027	306.173805	1113.139670	-62.860058	259.455270	1128.309356	-396.881104	392.577521	1027.651398	-56.376559	467.781480	979.876447	-63.613958	506.556572	900.994542	-71.525748	491.782476	1003.977007	-76.981422	580.075535	782.532225	-107.299830	477.496125	751.567804	-77.429943	409.067410	696.457230	-90.428631	325.439631	679.374678	-92.097103	423.490090	671.852994	-116.336071	207.330223	617.961537	-96.671255	237.312017	627.692730	-176.805100	149.714290	669.577768	-139.089468	232.049100	386.023224	-159.511798	178.983856	467.433288	-86.870519	291.953484	985.376287	-424.897127	333.005279	910.553417	-422.700976	368.245413	917.259293	-411.475252	329.240882	819.882940	-421.495828	350.905106	681.307874	-397.940379	329.156871	666.172460	-295.099539	284.178896	573.492191	-432.664045	276.781036	486.724073	-425.739270	225.982182	413.693729	-428.367505	305.969682	477.635862	-402.183595	192.865468	298.583403	-427.087994	223.267430	322.149999	-359.340670	126.898716	281.773018	-384.443898	391.865539	152.904068	-395.600876	280.896910	169.243542	-457.250309	-166.786510	902.141635	-270.018830	-43.371349	84.982363	-474.713471	-51.659134	80.274243	-77.238295	
1254	6.2700	823.348450	1272.824092	-100.133358	808.211688	1280.122730	-413.643058	809.301486	1364.474636	-262.225578	757.459521	1203.035506	-254.797217	612.173127	1143.906705	72.703104	685.922713	954.958529	-25.411925	576.927314	1167.315774	-594.551914	693.521810	966.996821	-508.372701	215.847453	1239.399208	-232.082734	358.959984	1211.104952	-380.365428	369.497217	1236.400291	-97.716368	390.526577	1150.936960	-340.329511	389.130254	1165.008095	-124.722228	261.874516	1280.024569	-196.115661	263.094681	1276.108707	-282.873042	305.161899	1114.812791	-63.523757	260.558200	1125.995632	-397.727670	393.508260	1031.277485	-56.150050	469.893746	985.411444	-63.019457	510.580292	907.440990	-70.260804	493.216759	1009.863668	-76.496263	586.905833	790.426457	-106.142949	484.732657	758.993364	-76.669807	416.780901	703.314213	-89.639417	333.213429	685.476756	-91.419391	431.515725	678.559486	-115.291510	215.804048	622.570283	-96.521505	245.880408	632.677242	-176.405695	157.743701	673.672168	-138.881556	243.901506	392.041025	-158.323239	188.350921	471.893515	-87.240127	290.125963	983.713898	-425.701804	329.280623	907.802633	-423.627368	364.608261	913.591392	-412.082767	322.862698	817.206498	-422.526885	341.799898	678.662360	-398.689620	319.396918	663.826314	-295.613927	275.099838	571.013134	-433.973042	267.872923	484.024828	-426.765315	217.253526	410.909031	-429.274830	297.183467	474.998784	-403.283592	184.752308	295.734716	-427.914288	215.127884	318.980643	-360.131939	118.954426	279.876325	-385.171316	382.192481	147.498681	-395.688485	271.472332	164.941611	-457.477872	-166.819179	902.133919	-270.077671	-43.384947	84.987666	-474.725764	-51.664488	80.273333	-77.252353	
